<svg xmlns="http://www.w3.org/2000/svg" xmlns:xlink="http://www.w3.org/1999/xlink" width="120" zoomAndPan="magnify" viewBox="0 0 90 30.000001" height="40" preserveAspectRatio="xMidYMid meet" version="1.0"><defs><g/><clipPath id="d07de119cc"><path d="M 1.453125 0 L 88.546875 0 L 88.546875 29.03125 L 1.453125 29.03125 Z M 1.453125 0 " clip-rule="nonzero"/></clipPath></defs><g clip-path="url(#d07de119cc)"><path fill="#ffffff" d="M 1.453125 0 L 88.546875 0 L 88.546875 29.03125 L 1.453125 29.03125 Z M 1.453125 0 " fill-opacity="1" fill-rule="nonzero"/><path fill="#e4e2dd" d="M 1.453125 0 L 88.546875 0 L 88.546875 29.03125 L 1.453125 29.03125 Z M 1.453125 0 " fill-opacity="1" fill-rule="nonzero"/></g><g fill="#272727" fill-opacity="1"><g transform="translate(18.742622, 20.450401)"><g><path d="M 0.65625 -6.53125 C 0.738281 -7.375 0.945312 -8.160156 1.28125 -8.890625 C 1.625 -9.617188 2.050781 -10.238281 2.5625 -10.75 C 3.070312 -11.257812 3.640625 -11.644531 4.265625 -11.90625 C 4.890625 -12.164062 5.535156 -12.265625 6.203125 -12.203125 C 6.859375 -12.117188 7.40625 -11.960938 7.84375 -11.734375 C 7.613281 -11.828125 7.382812 -11.875 7.15625 -11.875 C 6.75 -11.875 6.367188 -11.722656 6.015625 -11.421875 C 5.671875 -11.128906 5.363281 -10.726562 5.09375 -10.21875 C 4.832031 -9.707031 4.625 -9.113281 4.46875 -8.4375 C 4.3125 -7.757812 4.234375 -7.050781 4.234375 -6.3125 C 4.234375 -5.5625 4.3125 -4.84375 4.46875 -4.15625 C 4.625 -3.476562 4.832031 -2.878906 5.09375 -2.359375 C 5.363281 -1.835938 5.671875 -1.421875 6.015625 -1.109375 C 6.367188 -0.804688 6.75 -0.65625 7.15625 -0.65625 C 7.289062 -0.65625 7.410156 -0.671875 7.515625 -0.703125 C 7.617188 -0.734375 7.726562 -0.773438 7.84375 -0.828125 C 7.40625 -0.484375 6.925781 -0.226562 6.40625 -0.0625 C 5.894531 0.101562 5.375 0.15625 4.84375 0.09375 C 4.175781 0.03125 3.566406 -0.1875 3.015625 -0.5625 C 2.460938 -0.945312 1.992188 -1.441406 1.609375 -2.046875 C 1.234375 -2.648438 0.957031 -3.335938 0.78125 -4.109375 C 0.601562 -4.878906 0.5625 -5.6875 0.65625 -6.53125 Z M 11.609375 -1.828125 C 11.609375 -1.535156 11.707031 -1.25 11.90625 -0.96875 C 12.101562 -0.695312 12.335938 -0.535156 12.609375 -0.484375 L 8.453125 0.125 L 8.375 0.125 C 8.257812 0.125 8.160156 0.0820312 8.078125 0 C 7.992188 -0.0820312 7.953125 -0.1875 7.953125 -0.3125 L 7.953125 -15.09375 C 7.953125 -15.382812 7.851562 -15.664062 7.65625 -15.9375 C 7.46875 -16.21875 7.238281 -16.382812 6.96875 -16.4375 L 11.125 -17.046875 L 11.203125 -17.046875 C 11.328125 -17.046875 11.425781 -17.003906 11.5 -16.921875 C 11.570312 -16.835938 11.609375 -16.734375 11.609375 -16.609375 Z M 11.609375 -1.828125 "/></g></g></g><g fill="#272727" fill-opacity="1"><g transform="translate(30.257647, 20.450401)"><g><path d="M 6.359375 -12.203125 C 7.097656 -12.160156 7.789062 -11.972656 8.4375 -11.640625 C 9.09375 -11.316406 9.660156 -10.878906 10.140625 -10.328125 C 10.628906 -9.773438 11.007812 -9.128906 11.28125 -8.390625 C 11.5625 -7.648438 11.703125 -6.863281 11.703125 -6.03125 C 11.703125 -5.207031 11.5625 -4.425781 11.28125 -3.6875 C 11.007812 -2.945312 10.628906 -2.300781 10.140625 -1.75 C 9.660156 -1.195312 9.09375 -0.753906 8.4375 -0.421875 C 7.789062 -0.0859375 7.097656 0.09375 6.359375 0.125 C 6.910156 0.0078125 7.328125 -0.566406 7.609375 -1.609375 C 7.890625 -2.660156 8.03125 -4.132812 8.03125 -6.03125 C 8.03125 -7.9375 7.890625 -9.410156 7.609375 -10.453125 C 7.328125 -11.503906 6.910156 -12.085938 6.359375 -12.203125 Z M 5.9375 -12.203125 C 5.40625 -12.085938 4.992188 -11.503906 4.703125 -10.453125 C 4.410156 -9.410156 4.265625 -7.9375 4.265625 -6.03125 C 4.265625 -4.132812 4.410156 -2.660156 4.703125 -1.609375 C 4.992188 -0.566406 5.40625 0.0078125 5.9375 0.125 C 5.1875 0.09375 4.488281 -0.0859375 3.84375 -0.421875 C 3.195312 -0.753906 2.632812 -1.195312 2.15625 -1.75 C 1.675781 -2.300781 1.296875 -2.945312 1.015625 -3.6875 C 0.742188 -4.425781 0.609375 -5.207031 0.609375 -6.03125 C 0.609375 -6.863281 0.742188 -7.648438 1.015625 -8.390625 C 1.296875 -9.128906 1.675781 -9.773438 2.15625 -10.328125 C 2.632812 -10.878906 3.195312 -11.316406 3.84375 -11.640625 C 4.488281 -11.972656 5.1875 -12.160156 5.9375 -12.203125 Z M 5.9375 -12.203125 "/></g></g></g><g fill="#272727" fill-opacity="1"><g transform="translate(40.871913, 20.450401)"><g><path d="M 5.28125 -10.5625 L 5.28125 -2.1875 C 5.28125 -1.8125 5.40625 -1.5 5.65625 -1.25 C 5.90625 -1 6.210938 -0.875 6.578125 -0.875 C 6.816406 -0.875 7.039062 -0.941406 7.25 -1.078125 C 7.101562 -0.960938 6.929688 -0.832031 6.734375 -0.6875 C 6.546875 -0.550781 6.328125 -0.421875 6.078125 -0.296875 C 5.835938 -0.179688 5.570312 -0.0820312 5.28125 0 C 4.988281 0.0820312 4.671875 0.125 4.328125 0.125 C 3.953125 0.125 3.597656 0.0507812 3.265625 -0.09375 C 2.941406 -0.238281 2.65625 -0.4375 2.40625 -0.6875 C 2.164062 -0.945312 1.972656 -1.238281 1.828125 -1.5625 C 1.679688 -1.894531 1.609375 -2.25 1.609375 -2.625 L 1.609375 -10.640625 C 1.609375 -10.929688 1.515625 -11.207031 1.328125 -11.46875 C 1.140625 -11.738281 0.898438 -11.910156 0.609375 -11.984375 C 1.535156 -12.046875 2.394531 -12.265625 3.1875 -12.640625 C 3.976562 -13.023438 4.675781 -13.523438 5.28125 -14.140625 L 5.28125 -11.984375 L 6.25 -11.984375 C 5.976562 -11.910156 5.75 -11.738281 5.5625 -11.46875 C 5.375 -11.207031 5.28125 -10.929688 5.28125 -10.640625 Z M 5.28125 -10.5625 "/></g></g></g><g fill="#272727" fill-opacity="1"><g transform="translate(47.079774, 20.450401)"><g><path d="M 3.234375 -0.859375 C 3.265625 -0.628906 3.40625 -0.421875 3.65625 -0.234375 C 3.914062 -0.046875 4.269531 0.0625 4.71875 0.09375 C 4.15625 0.0625 3.625 -0.0390625 3.125 -0.21875 C 2.632812 -0.394531 2.203125 -0.617188 1.828125 -0.890625 C 1.453125 -1.171875 1.15625 -1.492188 0.9375 -1.859375 C 0.71875 -2.222656 0.609375 -2.617188 0.609375 -3.046875 C 0.609375 -3.566406 0.789062 -4.007812 1.15625 -4.375 C 1.519531 -4.738281 1.960938 -4.921875 2.484375 -4.921875 C 2.742188 -4.921875 2.988281 -4.867188 3.21875 -4.765625 C 3.457031 -4.671875 3.660156 -4.535156 3.828125 -4.359375 C 4.003906 -4.191406 4.140625 -3.992188 4.234375 -3.765625 C 4.328125 -3.546875 4.375 -3.304688 4.375 -3.046875 C 4.375 -2.753906 4.3125 -2.476562 4.1875 -2.21875 C 4.070312 -1.96875 3.910156 -1.753906 3.703125 -1.578125 C 3.566406 -1.460938 3.453125 -1.34375 3.359375 -1.21875 C 3.265625 -1.101562 3.222656 -0.984375 3.234375 -0.859375 Z M 9.78125 -3.28125 C 9.8125 -2.800781 9.707031 -2.351562 9.46875 -1.9375 C 9.238281 -1.519531 8.910156 -1.160156 8.484375 -0.859375 C 8.054688 -0.554688 7.554688 -0.316406 6.984375 -0.140625 C 6.421875 0.0351562 5.820312 0.125 5.1875 0.125 C 5.625 0.125 5.992188 -0.0507812 6.296875 -0.40625 C 6.609375 -0.769531 6.765625 -1.171875 6.765625 -1.609375 C 6.765625 -2.015625 6.613281 -2.40625 6.3125 -2.78125 C 6.007812 -3.164062 5.628906 -3.546875 5.171875 -3.921875 C 4.710938 -4.304688 4.21875 -4.703125 3.6875 -5.109375 C 3.15625 -5.515625 2.660156 -5.9375 2.203125 -6.375 C 1.742188 -6.8125 1.363281 -7.273438 1.0625 -7.765625 C 0.757812 -8.253906 0.609375 -8.78125 0.609375 -9.34375 C 0.609375 -9.832031 0.738281 -10.253906 1 -10.609375 C 1.257812 -10.972656 1.585938 -11.269531 1.984375 -11.5 C 2.378906 -11.738281 2.820312 -11.914062 3.3125 -12.03125 C 3.800781 -12.144531 4.269531 -12.203125 4.71875 -12.203125 C 4.863281 -12.203125 5 -12.203125 5.125 -12.203125 C 5.25 -12.203125 5.375 -12.179688 5.5 -12.140625 C 5.0625 -12.210938 4.679688 -12.113281 4.359375 -11.84375 C 4.046875 -11.570312 3.890625 -11.171875 3.890625 -10.640625 C 3.890625 -10.203125 4.023438 -9.796875 4.296875 -9.421875 C 4.578125 -9.046875 4.925781 -8.679688 5.34375 -8.328125 C 5.769531 -7.972656 6.226562 -7.609375 6.71875 -7.234375 C 7.21875 -6.867188 7.6875 -6.488281 8.125 -6.09375 C 8.5625 -5.695312 8.9375 -5.265625 9.25 -4.796875 C 9.5625 -4.335938 9.738281 -3.832031 9.78125 -3.28125 Z M 8.984375 -7.90625 C 8.921875 -8.269531 8.816406 -8.671875 8.671875 -9.109375 C 8.535156 -9.554688 8.34375 -9.984375 8.09375 -10.390625 C 7.84375 -10.796875 7.523438 -11.15625 7.140625 -11.46875 C 6.765625 -11.789062 6.300781 -12.007812 5.75 -12.125 C 6.007812 -12.070312 6.25 -12.015625 6.46875 -11.953125 C 6.6875 -11.890625 6.890625 -11.820312 7.078125 -11.75 C 7.273438 -11.6875 7.46875 -11.640625 7.65625 -11.609375 C 7.84375 -11.578125 8.039062 -11.570312 8.25 -11.59375 C 8.382812 -11.601562 8.523438 -11.632812 8.671875 -11.6875 C 8.828125 -11.738281 8.929688 -11.796875 8.984375 -11.859375 Z M 8.984375 -7.90625 "/></g></g></g><g fill="#272727" fill-opacity="1"><g transform="translate(55.795146, 20.450401)"><g><path d="M 11.609375 3.140625 C 11.609375 3.628906 11.472656 4.066406 11.203125 4.453125 C 10.941406 4.847656 10.609375 5.160156 10.203125 5.390625 C 9.796875 5.628906 9.34375 5.773438 8.84375 5.828125 C 8.351562 5.890625 7.890625 5.828125 7.453125 5.640625 C 7.835938 5.773438 8.1875 5.804688 8.5 5.734375 C 8.820312 5.671875 8.984375 5.53125 8.984375 5.3125 C 8.984375 5.144531 8.910156 4.992188 8.765625 4.859375 C 8.628906 4.722656 8.5 4.585938 8.375 4.453125 C 8.019531 4.097656 7.84375 3.660156 7.84375 3.140625 C 7.84375 2.878906 7.890625 2.628906 7.984375 2.390625 C 8.078125 2.160156 8.207031 1.957031 8.375 1.78125 C 8.550781 1.613281 8.753906 1.476562 8.984375 1.375 C 9.210938 1.28125 9.457031 1.234375 9.71875 1.234375 C 10.226562 1.234375 10.671875 1.421875 11.046875 1.796875 C 11.421875 2.171875 11.609375 2.617188 11.609375 3.140625 Z M 14.84375 -11.953125 C 14.519531 -11.898438 14.195312 -11.789062 13.875 -11.625 C 13.550781 -11.457031 13.242188 -11.242188 12.953125 -10.984375 C 12.660156 -10.734375 12.390625 -10.457031 12.140625 -10.15625 C 11.898438 -9.863281 11.707031 -9.570312 11.5625 -9.28125 C 11.675781 -9.5 11.734375 -9.765625 11.734375 -10.078125 C 11.734375 -10.597656 11.550781 -11.039062 11.1875 -11.40625 C 10.820312 -11.769531 10.378906 -11.953125 9.859375 -11.953125 Z M 6.5 1.34375 C 6.675781 0.976562 6.765625 0.585938 6.765625 0.171875 C 6.765625 -0.210938 6.675781 -0.601562 6.5 -1 L 1.796875 -10.875 C 1.679688 -11.101562 1.507812 -11.332031 1.28125 -11.5625 C 1.0625 -11.789062 0.835938 -11.921875 0.609375 -11.953125 L 4.765625 -11.953125 C 5.191406 -11.953125 5.484375 -11.789062 5.640625 -11.46875 L 9.109375 -4.234375 Z M 6.5 1.34375 "/></g></g></g></svg>