<svg xmlns="http://www.w3.org/2000/svg" xmlns:xlink="http://www.w3.org/1999/xlink" width="120" zoomAndPan="magnify" viewBox="0 0 90 30.000001" height="40" preserveAspectRatio="xMidYMid meet" version="1.0"><defs><g/><clipPath id="59c1e7dbcd"><path d="M 1.453125 0 L 88.546875 0 L 88.546875 29.03125 L 1.453125 29.03125 Z M 1.453125 0 " clip-rule="nonzero"/></clipPath></defs><g clip-path="url(#59c1e7dbcd)"><path fill="#ffffff" d="M 1.453125 0 L 88.546875 0 L 88.546875 29.03125 L 1.453125 29.03125 Z M 1.453125 0 " fill-opacity="1" fill-rule="nonzero"/><path fill="#e4e2dd" d="M 1.453125 0 L 88.546875 0 L 88.546875 29.03125 L 1.453125 29.03125 Z M 1.453125 0 " fill-opacity="1" fill-rule="nonzero"/></g><g fill="#272727" fill-opacity="1"><g transform="translate(25.984348, 17.889643)"><g><path d="M 0.453125 -4.421875 C 0.503906 -4.992188 0.644531 -5.523438 0.875 -6.015625 C 1.101562 -6.515625 1.390625 -6.9375 1.734375 -7.28125 C 2.085938 -7.625 2.472656 -7.882812 2.890625 -8.0625 C 3.316406 -8.238281 3.753906 -8.304688 4.203125 -8.265625 C 4.648438 -8.210938 5.019531 -8.109375 5.3125 -7.953125 C 5.15625 -8.015625 5 -8.046875 4.84375 -8.046875 C 4.570312 -8.046875 4.316406 -7.941406 4.078125 -7.734375 C 3.847656 -7.535156 3.640625 -7.265625 3.453125 -6.921875 C 3.273438 -6.578125 3.132812 -6.175781 3.03125 -5.71875 C 2.925781 -5.257812 2.875 -4.78125 2.875 -4.28125 C 2.875 -3.769531 2.925781 -3.28125 3.03125 -2.8125 C 3.132812 -2.351562 3.273438 -1.945312 3.453125 -1.59375 C 3.640625 -1.25 3.847656 -0.972656 4.078125 -0.765625 C 4.316406 -0.554688 4.570312 -0.453125 4.84375 -0.453125 C 4.9375 -0.453125 5.019531 -0.460938 5.09375 -0.484375 C 5.164062 -0.503906 5.238281 -0.53125 5.3125 -0.5625 C 5.019531 -0.332031 4.695312 -0.160156 4.34375 -0.046875 C 4 0.0664062 3.644531 0.101562 3.28125 0.0625 C 2.832031 0.0195312 2.421875 -0.128906 2.046875 -0.390625 C 1.671875 -0.648438 1.351562 -0.984375 1.09375 -1.390625 C 0.832031 -1.796875 0.640625 -2.257812 0.515625 -2.78125 C 0.398438 -3.300781 0.378906 -3.847656 0.453125 -4.421875 Z M 7.875 -1.234375 C 7.875 -1.035156 7.9375 -0.84375 8.0625 -0.65625 C 8.195312 -0.46875 8.359375 -0.359375 8.546875 -0.328125 L 5.71875 0.078125 L 5.671875 0.078125 C 5.597656 0.078125 5.53125 0.0507812 5.46875 0 C 5.414062 -0.0507812 5.390625 -0.125 5.390625 -0.21875 L 5.390625 -10.234375 C 5.390625 -10.429688 5.320312 -10.625 5.1875 -10.8125 C 5.0625 -11 4.90625 -11.109375 4.71875 -11.140625 L 7.546875 -11.546875 L 7.59375 -11.546875 C 7.675781 -11.546875 7.742188 -11.519531 7.796875 -11.46875 C 7.847656 -11.414062 7.875 -11.34375 7.875 -11.25 Z M 7.875 -1.234375 "/></g></g></g><g fill="#272727" fill-opacity="1"><g transform="translate(33.788815, 17.889643)"><g><path d="M 4.3125 -8.265625 C 4.8125 -8.242188 5.28125 -8.117188 5.71875 -7.890625 C 6.164062 -7.671875 6.550781 -7.375 6.875 -7 C 7.207031 -6.625 7.46875 -6.1875 7.65625 -5.6875 C 7.84375 -5.1875 7.9375 -4.65625 7.9375 -4.09375 C 7.9375 -3.53125 7.84375 -3 7.65625 -2.5 C 7.46875 -2 7.207031 -1.5625 6.875 -1.1875 C 6.550781 -0.8125 6.164062 -0.507812 5.71875 -0.28125 C 5.28125 -0.0625 4.8125 0.0546875 4.3125 0.078125 C 4.6875 0.00390625 4.96875 -0.382812 5.15625 -1.09375 C 5.34375 -1.800781 5.4375 -2.800781 5.4375 -4.09375 C 5.4375 -5.375 5.34375 -6.367188 5.15625 -7.078125 C 4.96875 -7.796875 4.6875 -8.191406 4.3125 -8.265625 Z M 4.03125 -8.265625 C 3.664062 -8.191406 3.382812 -7.796875 3.1875 -7.078125 C 2.988281 -6.367188 2.890625 -5.375 2.890625 -4.09375 C 2.890625 -2.800781 2.988281 -1.800781 3.1875 -1.09375 C 3.382812 -0.382812 3.664062 0.00390625 4.03125 0.078125 C 3.519531 0.0546875 3.046875 -0.0625 2.609375 -0.28125 C 2.171875 -0.507812 1.785156 -0.8125 1.453125 -1.1875 C 1.128906 -1.5625 0.875 -2 0.6875 -2.5 C 0.5 -3 0.40625 -3.53125 0.40625 -4.09375 C 0.40625 -4.65625 0.5 -5.1875 0.6875 -5.6875 C 0.875 -6.1875 1.128906 -6.625 1.453125 -7 C 1.785156 -7.375 2.171875 -7.671875 2.609375 -7.890625 C 3.046875 -8.117188 3.519531 -8.242188 4.03125 -8.265625 Z M 4.03125 -8.265625 "/></g></g></g><g fill="#272727" fill-opacity="1"><g transform="translate(40.982779, 17.889643)"><g><path d="M 3.578125 -7.15625 L 3.578125 -1.484375 C 3.578125 -1.234375 3.660156 -1.019531 3.828125 -0.84375 C 4.003906 -0.675781 4.210938 -0.59375 4.453125 -0.59375 C 4.617188 -0.59375 4.773438 -0.632812 4.921875 -0.71875 C 4.816406 -0.644531 4.695312 -0.5625 4.5625 -0.46875 C 4.4375 -0.375 4.289062 -0.285156 4.125 -0.203125 C 3.957031 -0.117188 3.773438 -0.0507812 3.578125 0 C 3.378906 0.0507812 3.164062 0.078125 2.9375 0.078125 C 2.6875 0.078125 2.445312 0.03125 2.21875 -0.0625 C 1.988281 -0.164062 1.789062 -0.300781 1.625 -0.46875 C 1.46875 -0.632812 1.335938 -0.832031 1.234375 -1.0625 C 1.140625 -1.289062 1.09375 -1.53125 1.09375 -1.78125 L 1.09375 -7.203125 C 1.09375 -7.398438 1.023438 -7.585938 0.890625 -7.765625 C 0.765625 -7.953125 0.601562 -8.070312 0.40625 -8.125 C 1.039062 -8.164062 1.625 -8.3125 2.15625 -8.5625 C 2.695312 -8.820312 3.171875 -9.164062 3.578125 -9.59375 L 3.578125 -8.125 L 4.234375 -8.125 C 4.046875 -8.070312 3.890625 -7.953125 3.765625 -7.765625 C 3.640625 -7.585938 3.578125 -7.398438 3.578125 -7.203125 Z M 3.578125 -7.15625 "/></g></g></g><g fill="#272727" fill-opacity="1"><g transform="translate(45.190242, 17.889643)"><g><path d="M 2.1875 -0.578125 C 2.21875 -0.421875 2.316406 -0.28125 2.484375 -0.15625 C 2.648438 -0.03125 2.890625 0.0390625 3.203125 0.0625 C 2.816406 0.0390625 2.453125 -0.0234375 2.109375 -0.140625 C 1.773438 -0.265625 1.484375 -0.421875 1.234375 -0.609375 C 0.984375 -0.796875 0.78125 -1.015625 0.625 -1.265625 C 0.476562 -1.515625 0.40625 -1.78125 0.40625 -2.0625 C 0.40625 -2.414062 0.53125 -2.710938 0.78125 -2.953125 C 1.03125 -3.203125 1.332031 -3.328125 1.6875 -3.328125 C 1.863281 -3.328125 2.03125 -3.296875 2.1875 -3.234375 C 2.34375 -3.171875 2.476562 -3.078125 2.59375 -2.953125 C 2.707031 -2.835938 2.796875 -2.703125 2.859375 -2.546875 C 2.929688 -2.398438 2.96875 -2.238281 2.96875 -2.0625 C 2.96875 -1.863281 2.925781 -1.675781 2.84375 -1.5 C 2.757812 -1.332031 2.648438 -1.191406 2.515625 -1.078125 C 2.421875 -0.992188 2.335938 -0.910156 2.265625 -0.828125 C 2.203125 -0.742188 2.175781 -0.660156 2.1875 -0.578125 Z M 6.640625 -2.234375 C 6.660156 -1.898438 6.585938 -1.59375 6.421875 -1.3125 C 6.265625 -1.03125 6.039062 -0.785156 5.75 -0.578125 C 5.457031 -0.378906 5.117188 -0.21875 4.734375 -0.09375 C 4.347656 0.0195312 3.941406 0.078125 3.515625 0.078125 C 3.804688 0.078125 4.054688 -0.0390625 4.265625 -0.28125 C 4.484375 -0.519531 4.59375 -0.789062 4.59375 -1.09375 C 4.59375 -1.363281 4.488281 -1.628906 4.28125 -1.890625 C 4.070312 -2.148438 3.8125 -2.40625 3.5 -2.65625 C 3.1875 -2.914062 2.851562 -3.179688 2.5 -3.453125 C 2.144531 -3.734375 1.804688 -4.019531 1.484375 -4.3125 C 1.171875 -4.613281 0.910156 -4.929688 0.703125 -5.265625 C 0.503906 -5.597656 0.40625 -5.957031 0.40625 -6.34375 C 0.40625 -6.664062 0.492188 -6.945312 0.671875 -7.1875 C 0.847656 -7.4375 1.070312 -7.640625 1.34375 -7.796875 C 1.613281 -7.953125 1.910156 -8.066406 2.234375 -8.140625 C 2.566406 -8.222656 2.890625 -8.265625 3.203125 -8.265625 C 3.296875 -8.265625 3.382812 -8.265625 3.46875 -8.265625 C 3.550781 -8.265625 3.640625 -8.253906 3.734375 -8.234375 C 3.429688 -8.273438 3.171875 -8.203125 2.953125 -8.015625 C 2.742188 -7.835938 2.640625 -7.566406 2.640625 -7.203125 C 2.640625 -6.910156 2.734375 -6.632812 2.921875 -6.375 C 3.109375 -6.125 3.34375 -5.878906 3.625 -5.640625 C 3.914062 -5.398438 4.226562 -5.15625 4.5625 -4.90625 C 4.894531 -4.65625 5.207031 -4.394531 5.5 -4.125 C 5.800781 -3.863281 6.054688 -3.570312 6.265625 -3.25 C 6.472656 -2.9375 6.597656 -2.597656 6.640625 -2.234375 Z M 6.09375 -5.359375 C 6.039062 -5.597656 5.96875 -5.867188 5.875 -6.171875 C 5.78125 -6.484375 5.648438 -6.773438 5.484375 -7.046875 C 5.316406 -7.316406 5.101562 -7.554688 4.84375 -7.765625 C 4.582031 -7.984375 4.265625 -8.132812 3.890625 -8.21875 C 4.066406 -8.1875 4.226562 -8.144531 4.375 -8.09375 C 4.53125 -8.050781 4.671875 -8.007812 4.796875 -7.96875 C 4.929688 -7.925781 5.0625 -7.894531 5.1875 -7.875 C 5.3125 -7.851562 5.445312 -7.847656 5.59375 -7.859375 C 5.675781 -7.867188 5.769531 -7.890625 5.875 -7.921875 C 5.976562 -7.953125 6.050781 -7.988281 6.09375 -8.03125 Z M 6.09375 -5.359375 "/></g></g></g><g fill="#272727" fill-opacity="1"><g transform="translate(51.097206, 17.889643)"><g><path d="M 7.875 2.125 C 7.875 2.457031 7.78125 2.753906 7.59375 3.015625 C 7.414062 3.285156 7.1875 3.5 6.90625 3.65625 C 6.632812 3.8125 6.332031 3.910156 6 3.953125 C 5.664062 3.992188 5.347656 3.953125 5.046875 3.828125 C 5.304688 3.910156 5.546875 3.929688 5.765625 3.890625 C 5.984375 3.847656 6.09375 3.75 6.09375 3.59375 C 6.09375 3.488281 6.046875 3.390625 5.953125 3.296875 C 5.859375 3.203125 5.765625 3.109375 5.671875 3.015625 C 5.429688 2.773438 5.3125 2.476562 5.3125 2.125 C 5.3125 1.945312 5.34375 1.78125 5.40625 1.625 C 5.476562 1.46875 5.570312 1.332031 5.6875 1.21875 C 5.800781 1.101562 5.929688 1.007812 6.078125 0.9375 C 6.234375 0.875 6.398438 0.84375 6.578125 0.84375 C 6.929688 0.84375 7.234375 0.96875 7.484375 1.21875 C 7.742188 1.46875 7.875 1.769531 7.875 2.125 Z M 10.0625 -8.09375 C 9.84375 -8.0625 9.625 -7.988281 9.40625 -7.875 C 9.1875 -7.757812 8.976562 -7.613281 8.78125 -7.4375 C 8.582031 -7.269531 8.398438 -7.082031 8.234375 -6.875 C 8.066406 -6.675781 7.9375 -6.476562 7.84375 -6.28125 C 7.914062 -6.4375 7.953125 -6.617188 7.953125 -6.828125 C 7.953125 -7.179688 7.828125 -7.476562 7.578125 -7.71875 C 7.328125 -7.96875 7.03125 -8.09375 6.6875 -8.09375 Z M 4.40625 0.90625 C 4.53125 0.664062 4.59375 0.398438 4.59375 0.109375 C 4.59375 -0.148438 4.53125 -0.410156 4.40625 -0.671875 L 1.21875 -7.375 C 1.144531 -7.53125 1.03125 -7.679688 0.875 -7.828125 C 0.71875 -7.984375 0.5625 -8.070312 0.40625 -8.09375 L 3.234375 -8.09375 C 3.515625 -8.09375 3.710938 -7.984375 3.828125 -7.765625 L 6.171875 -2.875 Z M 4.40625 0.90625 "/></g></g></g></svg>